<svg xmlns="http://www.w3.org/2000/svg" viewBox="0 0 64 64"><defs><style>.cls-2{fill:#95d6ef}.cls-5{fill:none;stroke:#000;stroke-linejoin:round;stroke-width:2px}.cls-7{fill:#fff;mix-blend-mode:overlay}</style></defs><g style="isolation:isolate"><g id="Layer_3" data-name="Layer 3"><g id="Vector"><path class="cls-2" d="M59.25 60.25c-.09.09-.53.39-2.25.41-3.33 0-4.86-1-4.86-2v-2.41a11.09 11.09 0 0 0 4.79.89 9.31 9.31 0 0 0 2.39-.24v2.29c.06.47.07.92-.07 1.06zM12.15 56.25v2.42c0 1-1.57 2-5 2-1.86 0-2.31-.32-2.4-.42s-.13-.58-.11-1v-2.38a8.69 8.69 0 0 0 2.68.32 11.09 11.09 0 0 0 4.83-.94z"/><path style="fill:#1498c1" d="m37.42 1.98-5.07 5.06-5.06-5.06h10.13z"/><path class="cls-2" transform="rotate(-45 38.394 6.867)" d="M34.2 4.73h8.38v4.29H34.2z"/><path class="cls-2" transform="rotate(-44.91 26.313 6.866)" d="M24.17 2.68h4.29v8.38h-4.29z"/><path d="M59.25 54.79a4.54 4.54 0 0 1-2.32.35c-3 0-4.52-.8-4.89-1.55a1 1 0 0 0-.19-.25V25.66h-2v33a3.08 3.08 0 0 0 .07.61C48.66 60.37 42.36 62 32.15 62c-11.14 0-17.64-2-18-3V25.64h-2v28.1c-.49.71-2 1.4-4.79 1.4-1.86 0-2.31-.31-2.4-.41s-.13-.59-.11-1v-2.32C5.33 40.6 6.51 21.94 7.6 14.27a4.89 4.89 0 0 1 3.09-3.86l9.54-3.67 6.79 6.78a1 1 0 0 0 .7.29 1 1 0 0 0 .71-.29l3.88-3.88 3.89 3.88a1 1 0 0 0 .7.29 1 1 0 0 0 .71-.29l6.86-6.86 8.76 3.75a4.9 4.9 0 0 1 3.09 3.86c1.23 8.29 2.57 30.61 2.93 40.52z" style="fill:#9e5010"/></g><g id="Line"><path class="cls-5" d="M13.14 59c0 2.22 8.5 4 19 4M51.14 59c0 2.22-8.49 4-19 4"/><path class="cls-5" d="M13.15 54v4.63c0 1.65-2 3-6 3s-3.5-1.35-3.5-3c0-1.35.09-4 .24-7.28v1.75c0 1.66-.5 3 3.5 3 3.22.04 5.15-.84 5.76-2.1zM60 55.47c-.45.42-1.34.67-3.08.67-3.25 0-5.18-.88-5.79-2.1v4.63c0 1.65 2 3 6 3a5.42 5.42 0 0 0 2.87-.52M13.15 54.03V25.66"/><path class="cls-5" d="M3.89 51.39v-.08c.49-10.94 1.67-29.59 2.76-37.23a5.88 5.88 0 0 1 3.72-4.66l9.78-3.76M59.33 37c.6 9.53 1 18.68 1 21.66 0 1.66.5 3-3.5 3s-6-1.34-6-3v-33M59 32.1l.06.9M58.85 30q.07 1 .15 2.1M44.28 5.43l9.35 4a5.92 5.92 0 0 1 3.72 4.66c.51 3.55 1 9.49 1.5 15.92M32.21 8.31l-2.54 2.55-1.91 1.91-7.34-7.35 4.09-4.09.36-.36 4.8 4.81 2.54 2.53zM44.28 5.42l-7.34 7.35-4.45-4.46L34.81 6 39.83.97l4.45 4.45zM24.87.98h14.96"/></g><g style="opacity:.19;mix-blend-mode:multiply" id="Shadow"><path d="M32.15 62c10.21 0 16.51-1.66 17.77-2.76a3.08 3.08 0 0 1-.07-.61v-33h2v27.71a1 1 0 0 1 .19.25c.37.75 1.85 1.55 4.89 1.55a4.54 4.54 0 0 0 2.32-.35c-.36-9.91-1.7-32.23-2.89-40.57a4.9 4.9 0 0 0-3.09-3.86l-8.76-3.75-6.86 6.86a1 1 0 0 1-.71.29 1 1 0 0 1-.7-.29l-1.68-1.68c.39 4.73.63 9.47.67 14.22 0 5.18-.22 10.68-3.11 15s-7.76 6.57-12.73 7.55a41.9 41.9 0 0 1-5.24.65v9.83c.36 1.01 6.85 2.96 18 2.96zM4.85 53.68c0 .46 0 .91.11 1s.54.41 2.4.41c2.83 0 4.3-.69 4.79-1.4V49.3c-2.39.08-4.78.07-7.17.11q0 1-.09 2v1.78c-.03.14-.04.31-.04.49zM12.15 58.67v-2.42a11.09 11.09 0 0 1-4.79.89 8.69 8.69 0 0 1-2.68-.32v2.38c0 .47 0 .91.11 1s.54.42 2.4.42c3.39.05 4.96-.99 4.96-1.95z"/><path d="m42.87 5.42-3-3L34.22 8c0 .23 0 .46.06.68l2.66 2.66zM59.25 60.25c.14-.14.13-.59.11-1.06V56.9a9.31 9.31 0 0 1-2.39.24 11.09 11.09 0 0 1-4.79-.89v2.42c0 .94 1.53 2 4.86 2 1.68-.03 2.12-.33 2.21-.42zM33.92 5.47 37.42 2H33.5c.16 1.14.28 2.31.42 3.47z"/></g><g id="Highlight"><path class="cls-7" d="M59.35 58.66V56.9a9.31 9.31 0 0 1-2.39.24 11.09 11.09 0 0 1-4.79-.89v2.42c0 .94 1.53 2 4.86 2 1.72 0 2.16-.32 2.25-.41s.13-.59.11-1.06c-.03-.2-.04-.36-.04-.54zM4.68 56.82v2.38c0 .47 0 .91.11 1s.54.42 2.4.42c3.43 0 5-1 5-2v-2.37a11.09 11.09 0 0 1-4.79.89 8.69 8.69 0 0 1-2.72-.32zM37.42 1.98H27.29l5.06 5.06 5.07-5.06z"/><path class="cls-7" transform="rotate(-45.09 38.391 6.873)" d="M34.2 4.73h8.38v4.29H34.2z"/><path class="cls-7" transform="rotate(-44.95 26.317 6.868)" d="M24.17 2.68h4.29v8.38h-4.29z"/><path class="cls-7" d="M10.73 10.36a4.89 4.89 0 0 0-3.09 3.86c-1.09 7.67-2.27 26.33-2.75 37.14s0 0 0 .06v2.26c0 .46 0 .91.11 1s.54.41 2.4.41A12.78 12.78 0 0 0 9.47 55a43.48 43.48 0 0 1-1.4-8.65c-.54-6.88.29-10.92 1.29-23.16.21-2.63.44-5.71.64-9.17l5-5.29z"/></g></g></g></svg>